<svg viewBox="0 0 53 53" xmlns="http://www.w3.org/2000/svg"><g fill="none" fill-rule="nonzero"><g fill="#fff"><path d="m26.4347214 0c-14.5990909 0-26.4347214 11.8356305-26.4347214 26.4347214s11.8356305 26.4347214 26.4347214 26.4347214 26.4347214-11.8356305 26.4347214-26.4347214-11.8356305-26.4347214-26.4347214-26.4347214zm24.7157185 26.4347214c0 13.6494428-11.0647214 24.7157185-24.7157185 24.7157185s-24.71571847-11.0662757-24.71571847-24.7157185 11.06627567-24.71571847 24.71571847-24.71571847 24.7157185 11.06627567 24.7157185 24.71571847z"/><g transform="translate(7.304985 3.108504)"><path d="m31.941437 12.1107331c.3590322.3854546.8765982 1.0071555 1.1672434 1.3848387l5.3528445-3.3975953c-.2673314-.34970671-.6931965-.88126096-1.0118182-1.25583574l-3.389824 2.24123164-.2315836.1989443.172522-.2517888 1.4967449-2.98727277-1.0584458-1.05844575-2.9888269 1.49674487-.2517889.172522.2004985-.23158358 2.242786-3.3882698c-.3947801-.33571847-.7740176-.64346041-1.2573901-1.01648093l-3.3975953 5.34818181c.4305279.33105572.9978299.81753665 1.3599707 1.14859235l3.198651-1.65994132.2051613-.15076246-.1507625.20516129z"/><path d="m19.794956 5.3326393 1.4625513-3.27636364.0932552-.29064516-.0264223.30307918.1538709 4.37832844c.5129033.04818182 1.0429033.11967742 1.565132.20671555l-.2378006-6.48434018c-.7304985-.08082111-1.4578885-.13832845-2.1852786-.16941349l-1.4407918 3.57633431-.0512903.26577713-.0512903-.26577713-1.4392375-3.57633431c-.7273901.03108504-1.4547801.08859238-2.1852786.16941349l-.2378006 6.48434018c.5222287-.08703813 1.0522287-.15697948 1.5651319-.20671555l.153871-4.37832844-.0264223-.30307918.0932552.29064516 1.4625513 3.27636364z"/><path d="m7.96554252 10.5005279c.8455132-.89058655 1.32422288-1.91950151.47870968-2.9017889-.46005865-.5331085-1.23252199-.64967742-1.8728739-.38700879l-.06372434.02486803.02020528-.05595308c.09480938-.25334311.15542522-1.06155425-.53310851-1.61953079-.33571847-.27199414-.75692082-.37302053-1.18278592-.32950147-.79422287.08082112-1.40504399.62325514-3.06809384 2.47747801-.50202346.55953079-1.232522 1.44234604-1.67082112 2.01431085 0 0 4.56794722 4.33325514 4.56794722 4.33325514 1.51384164-1.6754839 2.13087976-2.298739 3.32454545-3.556129zm-5.96055718-1.06000004c.9201173-1.12527859 1.89774193-2.14642229 2.34070381-2.55052786.1398827-.12744868.29219941-.25489736.47715542-.30463343.29997068-.08237537.60926687.13055718.67920822.43829912.06994134.30929619-.12434018.60304985-.34038124.8455132-.48648093.54865102-2.27076246 2.41530791-2.27076246 2.41530791s-.88592375-.84395894-.88592375-.84395894zm1.78894428 1.69724344s1.73765396-1.83712614 2.30495601-2.42463347c.22536657-.23313783.36991202-.37457478.52533724-.45073314.20049854-.09791789.4196481-.11812317.61548387.01243402.19272728.12900293.28131965.351261.23313783.57196481-.05750733.26266862-.27199413.51290322-.44917888.70407625-.23935484.25645161-2.30029326 2.46193543-2.30340176 2.46504403z"/></g><path d="m42.1109091 26.4347214h-15.6761877v-15.6761877c8.6634018 0 15.6761877 7.0127859 15.6761877 15.6761877z"/><path d="m26.4347214 26.4347214v15.6761877c-8.6634018 0-15.6761877-7.0127859-15.6761877-15.6761877z"/></g><path d="m26.4347214 10.7585337v15.6761877h-15.6761877c0-8.6634018 7.0127859-15.6761877 15.6761877-15.6761877z" fill="#0066b1"/><path d="m42.1109091 26.4347214c0 8.6634018-7.0127859 15.6761877-15.6761877 15.6761877v-15.6761877z" fill="#0066b1"/></g></svg>