<svg xmlns="http://www.w3.org/2000/svg" width="150" height="40" fill="none"><path fill="white" d="M19.837 0C8.882 0 0 8.882 0 19.837 0 30.79 8.882 39.672 19.837 39.672s19.836-8.882 19.836-19.837C39.673 8.883 30.792 0 19.837 0Zm12.18 21.828c-.43 2.93-3.011 3.816-4.318 3.874h-.197c-.584 0-2.327-.105-3.605-1.302-.718-.67-1.154-1.557-1.317-2.639-.086.005-.177.01-.263.01-1.37 0-2.365-.814-2.763-1.365a.801.801 0 0 1 .177-1.115.796.796 0 0 1 1.111.172c.086.115.852 1.049 2.198.58a.09.09 0 0 0 .038-.01.036.036 0 0 0 .02-.01c.32-.086 1.172-.311 1.172-2.279a.801.801 0 0 1 1.6 0c0 2.14-.843 3.136-1.739 3.586.087.81.374 1.446.857 1.901 1.01.943 2.605.867 2.62.867.263-.015 2.49-.206 2.825-2.509.244-1.68-.427-2.48-.972-2.84-.254.48-.522.704-.58.748a.8.8 0 0 1-1.197-1.01l.56-1.025c.053-.235.096-.532.096-.896 0-1.307-.369-2.317-1.091-2.997-1.27-1.192-3.275-1.077-3.295-1.073a.801.801 0 0 1-.804-.517c-.043-.11-1.116-2.825-4.31-3.064-3.777.02-4.687 3.591-4.893 4.894l-.062.502a.795.795 0 0 1-.866.7.802.802 0 0 1-.723-.853 6.19 6.19 0 0 1 .047-.46c-.77.077-1.915.321-2.733 1.082-.71.656-1.063 1.619-1.063 2.859s.359 2.198 1.067 2.849c.881.809 2.15 1.01 2.916 1.058.134-.737.46-1.36.977-1.853 1.274-1.216 3.237-1.144 3.318-1.14a.798.798 0 1 1-.072 1.595c-.01 0-1.374-.043-2.145.704-.369.354-.55.842-.55 1.494 0 2.164 1.771 2.389 2.164 2.413h2.01c2.926 0 4.003 2.346 4.166 3.586 0 .033.005.067.005.1v3.208a.8.8 0 0 1-1.6 0v-3.15c-.061-.36-.473-2.15-2.57-2.15h-2.208a.813.813 0 0 1-.244-.038c-1.192-.177-2.906-1.006-3.25-3.17-.997-.048-2.71-.311-3.99-1.484-1.053-.963-1.584-2.318-1.584-4.027 0-1.71.531-3.064 1.585-4.036 1.37-1.269 3.246-1.499 4.194-1.528.747-2.25 2.542-4.754 6.148-4.754h.057c3.342.235 4.927 2.528 5.483 3.581.88.039 2.619.278 3.92 1.494 1.069.996 1.61 2.399 1.61 4.175 0 .211-.01.407-.029.594 1.15.56 2.5 1.963 2.107 4.654l-.015.014Zm-12.793-7.507a1.443 1.443 0 0 0-1.585.627.808.808 0 0 1-1.087.292.793.793 0 0 1-.302-1.077 3.055 3.055 0 0 1 3.309-1.403c2.126.45 2.696 2.633 2.7 3.725 0 .44-.354.8-.794.804a.8.8 0 0 1-.8-.795c0-.071-.043-1.871-1.436-2.168l-.005-.005Zm38.616 5.346v.09c1.228.155 2.613 1.361 2.613 3.483 0 2.434-1.496 4.154-4.824 4.154h-7.391V12.431h7.369c2.702 0 4.422 1.652 4.422 4.153 0 1.898-1.296 2.925-2.189 3.082Zm-6.565-4.645v3.662h3.796c1.206 0 2.01-.759 2.01-1.92 0-1.05-.826-1.742-1.809-1.742h-3.997Zm0 9.781h4.02c1.362 0 2.054-.737 2.054-1.854 0-1.138-.804-1.853-1.943-1.853h-4.131v3.707Zm18.628-8.709c.29 0 .514 0 .782.09l-.157 2.835h-.647c-2.725 0-3.975 1.675-3.975 4.78v3.595h-2.948V16.25h2.948v2.032c.893-1.295 2.188-2.188 3.997-2.188Zm13.73.156v11.143h-2.948v-.87c-.938.759-2.166 1.205-3.684 1.205-2.837 0-5.472-2.389-5.472-5.895s2.636-5.918 5.472-5.918c1.518 0 2.746.447 3.684 1.228v-.893h2.948Zm-6.119 8.91c1.586 0 3.171-1.273 3.171-3.327 0-2.054-1.585-3.35-3.17-3.35-1.787 0-3.127 1.296-3.127 3.35 0 2.054 1.34 3.327 3.126 3.327ZM88.38 11.159c1.028 0 1.787.826 1.787 1.764 0 .982-.76 1.72-1.786 1.72-1.05 0-1.787-.738-1.787-1.72 0-.938.737-1.764 1.787-1.764Zm1.475 16.234h-2.948V16.25h2.948v11.143Zm9.739-11.478c2.68 0 4.466 1.92 4.466 4.69v6.788h-2.948V21.23c0-1.563-.893-2.613-2.255-2.613-1.675 0-2.77 1.117-2.77 3.841v4.936H93.14V16.25h2.948v1.005c.87-.87 2.032-1.34 3.506-1.34Zm17.947.313-4.645 11.165h-3.126l-4.645-11.165h3.171l3.037 7.57 3.037-7.57h3.171Zm3.421-5.069c1.027 0 1.786.826 1.786 1.764 0 .982-.759 1.72-1.786 1.72-1.05 0-1.787-.738-1.787-1.72 0-.938.737-1.764 1.787-1.764Zm1.473 16.234h-2.947V16.25h2.947v11.143Zm9.74-11.478c2.68 0 4.466 1.92 4.466 4.69v6.788h-2.948V21.23c0-1.563-.893-2.613-2.255-2.613-1.675 0-2.769 1.117-2.769 3.841v4.936h-2.948V16.25h2.948v1.005c.871-.87 2.032-1.34 3.506-1.34ZM150 21.61v1.005h-8.486c.29 1.607 1.429 2.59 2.792 2.59.87 0 1.965-.112 2.769-1.474l2.635.558c-.983 2.323-2.97 3.44-5.404 3.44-3.149 0-5.717-2.39-5.717-5.896s2.568-5.918 5.761-5.918c2.97 0 5.538 2.3 5.65 5.695Zm-5.65-3.127c-1.116 0-2.389.67-2.747 2.055h5.382c-.379-1.43-1.451-2.055-2.635-2.055Z"/></svg>