<?xml version="1.0" encoding="UTF-8"?>
<svg id="Laag_2" xmlns="http://www.w3.org/2000/svg" xmlns:xlink="http://www.w3.org/1999/xlink" viewBox="0 0 1147 171.61">
  <defs>
    <style>
      .cls-1 {
        fill: none;
      }

      .cls-2 {
        fill: #5c113c;
      }

      .cls-3 {
        fill: #fcdab5;
      }

      .cls-4 {
        clip-path: url(#clippath-1);
      }

      .cls-5 {
        fill: #e73b3d;
      }

      .cls-6 {
        clip-path: url(#clippath);
      }
    </style>
    <clipPath id="clippath">
      <rect class="cls-1" y="0" width="1147" height="171.61"/>
    </clipPath>
    <clipPath id="clippath-1">
      <rect class="cls-1" y="0" width="1147" height="171.61"/>
    </clipPath>
  </defs>
  <g id="Laag_1-2" data-name="Laag_1">
    <g id="Comfora_kleur">
      <g class="cls-6">
        <g class="cls-4">
          <path class="cls-5" d="M163.16,28C163.16,12.54,150.06,0,133.9,0,123.72,0,114.76,5,109.53,12.55,104.28,5,95.33,0,85.15,0,68.99,0,55.9,12.53,55.9,28v1.48c0,31.33,53.63,73.18,53.63,73.18,0,0,53.63-41.86,53.63-73.18v-1.48Z"/>
          <path class="cls-3" d="M166.48,112.76s2.23-6.92,13.79-20.86c7.09-8.55,12.26-14.39,14.95-17.46,5-5.71,3.46-11.13,3.46-11.13-1.42-5.79-6.96-17.69-9.05-27.35-1.04-4.81,1.65-9.64,6.32-11.35.71-.26,1.5.09,1.89.73l3.99,6.71,2.32,3.44c1.55,2.31,2.85,4.77,3.86,7.36l7.71,20.26c3.48,5.07,3.23,12.29.89,17.11l-9.76,23.71c-4.83,11.73-13.29,21.62-24.17,28.25l-12.07,7.36c-9.36,5.7-15.44,15.37-16.58,26.07-.22,2.04-1.86,3.71-3.91,3.71h-24.59c-2.05,0-3.71-1.66-3.71-3.71v-24.38c0-16.78,7.66-32.77,21.1-42.93,5.44-4.11,10.46-8.72,15.02-13.78,5.79-6.42,12.66-11.8,20.29-15.92l1.24-.67c2.15-1.15,4.8-.82,6.57.85,2.22,2.08,2.36,5.54.33,7.8l-12.93,15.81c-7.96,9.6-6.96,20.38-6.96,20.38"/>
          <path class="cls-3" d="M51.05,112.76s-2.19-6.92-13.57-20.86c-6.98-8.55-12.07-14.39-14.72-17.46-4.92-5.71-3.4-11.13-3.4-11.13,1.4-5.79,6.85-17.69,8.91-27.36,1.03-4.81-1.62-9.64-6.22-11.35-.69-.26-1.48.09-1.86.73l-3.93,6.71-2.28,3.44c-1.53,2.31-2.81,4.78-3.8,7.36l-7.59,20.26c-3.42,5.07-3.18,12.29-.88,17.11l9.6,23.71c4.75,11.73,13.08,21.62,23.79,28.25l11.88,7.36c9.21,5.7,15.19,15.37,16.32,26.07.22,2.04,1.86,3.71,3.91,3.71h24.08c2.05,0,3.71-1.66,3.71-3.71v-24.38c0-16.78-7.54-32.77-20.77-42.93-5.35-4.11-10.3-8.72-14.78-13.78-5.7-6.42-12.46-11.8-19.97-15.92l-1.22-.67c-2.11-1.15-4.72-.82-6.46.85-2.19,2.08-2.33,5.54-.32,7.8l12.72,15.81c7.83,9.6,6.85,20.38,6.85,20.38"/>
          <path class="cls-2" d="M346.34,136.45c-4.27,2.56-9.16,3.85-14.77,3.85-5.25,0-10.01-1.22-14.29-3.6-4.27-2.38-7.63-5.74-10.01-10.01-2.38-4.27-3.6-9.04-3.6-14.29s1.22-10.01,3.6-14.29c2.38-4.27,5.74-7.63,9.89-10.14,4.15-2.5,9.04-3.72,14.16-3.72s9.65,1.1,13.62,3.36c3.97,2.2,6.96,5.31,8.98,9.16l27.9-15.81c-4.46-8.67-11.23-15.51-20.21-20.58-8.98-5.07-19.05-7.57-30.22-7.57s-21.31,2.62-30.47,7.81c-9.1,5.19-16.3,12.33-21.49,21.37-5.25,9.04-7.82,19.17-7.82,30.34s2.62,21.25,7.82,30.22c5.19,8.98,12.33,16.06,21.49,21.25,9.16,5.19,19.42,7.81,30.71,7.81,12.09,0,22.96-2.99,32.66-8.97l-.06.06c9.71-5.92,16.73-13.92,21.06-23.81l-29.31-13.01c-2.2,4.46-5.37,8-9.65,10.56"/>
          <path class="cls-2" d="M480.11,60.31c-9.04-5.19-19.11-7.82-30.1-7.82s-21,2.63-30.1,7.82c-9.04,5.25-16.18,12.4-21.37,21.55-5.25,9.16-7.82,19.29-7.82,30.47s2.62,21.25,7.82,30.22c5.19,8.98,12.27,16.06,21.37,21.25,9.04,5.19,19.11,7.81,30.1,7.81s21-2.63,30.1-7.81c9.04-5.19,16.18-12.27,21.37-21.25,5.19-8.97,7.81-19.05,7.81-30.22s-2.62-21.31-7.81-30.47c-5.19-9.16-12.27-16.36-21.37-21.55M473.88,126.43c-2.44,4.21-5.68,7.51-9.89,9.89-4.21,2.38-8.73,3.6-13.74,3.6s-9.59-1.22-13.86-3.6c-4.27-2.44-7.63-5.68-10.14-9.89-2.5-4.15-3.72-8.73-3.72-14.17s1.22-10.26,3.6-14.53,5.68-7.63,9.89-10.01c4.21-2.38,8.85-3.6,13.98-3.6s9.77,1.22,13.86,3.72c4.09,2.5,7.39,5.86,9.89,10.14,2.5,4.27,3.72,9.04,3.72,14.29s-1.22,9.95-3.6,14.17"/>
          <polygon class="cls-2" points="633.48 169.29 633.42 169.29 633.42 169.35 633.48 169.29"/>
          <path class="cls-2" d="M684.03,58.36c-7.02-3.72-15.08-5.62-24.06-5.62-6.04,0-11.78,1.1-17.22,3.36-5.43,2.26-10.01,5.37-13.74,9.22-1.34,1.41-2.52,2.86-3.54,4.37-1.62-2.82-3.43-5.23-5.43-7.24-6.41-6.41-15.39-9.65-26.86-9.65-6.66,0-13.07,1.4-19.17,4.21-5.11,2.3-9.53,6.25-13.31,11.73v-13.69h-32.79v114.23h32.79v-65.03c.22-3.95,1.11-7.37,2.62-10.19,1.77-3.36,4.21-5.8,7.33-7.45,3.11-1.65,6.47-2.44,10.01-2.44,6.23,0,11.11,1.95,14.65,5.92,3.6,3.97,5.37,9.34,5.37,16.18v63.01h32.72v-63.01c0-4.76.98-8.79,2.81-12.09,1.89-3.24,4.4-5.74,7.57-7.45,3.24-1.71,6.65-2.56,10.38-2.56,5.86,0,10.62,1.95,14.17,5.92,3.6,3.97,5.37,9.34,5.37,16.18v63.01h32.79v-70.88c0-9.04-1.95-17.03-5.92-24-3.97-7.02-9.46-12.33-16.55-16.06"/>
          <path class="cls-2" d="M770.24,35.83c3.48-3.18,7.63-4.76,12.46-4.76,1.71,0,3.54.18,5.49.49,1.95.31,3.54.61,4.76.92l1.65-28.82c-2.2-1.1-4.76-1.95-7.82-2.56-3.05-.61-6.05-.92-8.98-.92-13.68,0-24.67,4.15-33.03,12.46-8.36,8.3-12.58,19.72-12.58,34.31v122.29h32.79v-83.04h28.21v-31.14h-28.21v-6.78c0-5.13,1.77-9.28,5.25-12.46"/>
          <path class="cls-2" d="M895.53,60.31c-9.04-5.19-19.11-7.82-30.1-7.82s-21,2.63-30.1,7.82c-9.04,5.25-16.12,12.4-21.37,21.55-5.25,9.16-7.82,19.29-7.82,30.47s2.62,21.25,7.82,30.22c5.19,8.98,12.27,16.06,21.37,21.25,9.04,5.19,19.11,7.81,30.1,7.81s21-2.63,30.1-7.81c9.04-5.19,16.18-12.27,21.37-21.25,5.19-8.97,7.82-19.05,7.82-30.22s-2.63-21.31-7.82-30.47c-5.19-9.16-12.27-16.36-21.37-21.55M889.36,126.43c-2.38,4.21-5.68,7.51-9.89,9.89-4.21,2.38-8.73,3.6-13.74,3.6s-9.59-1.22-13.86-3.6c-4.27-2.44-7.63-5.74-10.14-9.89s-3.72-8.73-3.72-14.17,1.22-10.26,3.6-14.53,5.68-7.63,9.89-10.01,8.85-3.6,13.98-3.6,9.77,1.22,13.86,3.72c4.09,2.5,7.39,5.86,9.89,10.14,2.5,4.27,3.72,9.04,3.72,14.29s-1.22,9.95-3.6,14.17"/>
          <path class="cls-2" d="M987.78,57.5v.06c-5.25,3.18-9.1,7.08-11.66,11.72v-14.23h-32.79v114.23h32.79v-56.05c.06-6.35,1.28-11.72,3.66-16.06,2.38-4.33,5.43-7.57,9.16-9.65,3.73-2.14,7.57-3.18,11.42-3.18,5.25,0,10.14.98,14.65,2.81l3.72-31.87c-4.03-1.71-9.1-2.56-15.14-2.56-5.25,0-10.56,1.59-15.81,4.76"/>
          <path class="cls-2" d="M1113.97,55.06v15.87c-3.03-4.49-6.67-8.19-10.93-11.11-6.96-4.7-15.51-7.08-25.09-7.08s-18.5,2.69-26.62,7.94c-8.12,5.25-14.59,12.45-19.29,21.61-4.7,9.16-7.08,19.05-7.08,29.8s2.38,20.64,7.08,29.79c4.7,9.16,11.17,16.36,19.29,21.74,8.12,5.31,16.85,8,26.62,8s18.13-2.32,25.09-7.08c4.26-2.88,7.9-6.59,10.93-11.1v15.86h33.03V55.06h-33.03ZM1113.97,114.07c-.27,4.47-1.48,8.57-3.66,12.3-2.5,4.27-5.92,7.69-10.26,10.13-4.33,2.5-9.22,3.73-14.65,3.73-5.07,0-9.83-1.22-14.17-3.73-4.4-2.5-7.81-5.92-10.38-10.26-2.56-4.34-3.85-9.1-3.85-14.17s1.28-9.77,3.85-14.04c2.57-4.27,6.05-7.69,10.38-10.26,4.33-2.56,9.04-3.85,14.17-3.85,5.43,0,10.32,1.22,14.65,3.72,4.33,2.5,7.75,5.92,10.26,10.26,2.18,3.78,3.39,7.75,3.66,12.19v3.97Z"/>
        </g>
      </g>
    </g>
  </g>
</svg>