<?xml version="1.0" encoding="utf-8"?>
<!-- Generator: Adobe Illustrator 19.2.0, SVG Export Plug-In . SVG Version: 6.00 Build 0)  -->
<svg version="1.1" id="Layer_1" xmlns="http://www.w3.org/2000/svg" xmlns:xlink="http://www.w3.org/1999/xlink" x="0px" y="0px"
	 viewBox="0 0 302.4 75.1" style="enable-background:new 0 0 302.4 75.1;" xml:space="preserve">
<style type="text/css">
	.st0{fill:#FFFFFF;}
</style>
<g>
	<path class="st0" d="M6.7,31.8h7.2V13.9h6.7v44.1h-6.7V37.7H6.7v20.2H0V13.9h6.7V31.8z"/>
	<path class="st0" d="M31.3,40.4l-7.8-26.5h7.3l3.8,16.2L38,13.9h7.2L38,40.4v17.6h-6.7V40.4z"/>
	<path class="st0" d="M55.8,13.9c6,0,8.5,0.7,10.4,3.2c2,2.5,2.6,6.6,2.6,18.8c0,13.1-0.7,17-3.2,19.6c-2,1.9-4.4,2.5-9.8,2.5H48
		V13.9H55.8z M54.8,52h1.4c5.8,0,5.9-0.6,5.9-15.7c0-16.2-0.1-16.5-5.6-16.5h-1.8V52z"/>
	<path class="st0" d="M74.3,13.9h8.7c4.1,0,5.6,0.2,7.3,1.1c3,1.5,4.2,4.5,4.2,10.2c0,5.2-1.1,7.7-4.1,9.3c3,1.5,4.1,3.1,4.1,6.3
		v13.1c0,2,0.2,3.1,0.8,4.2h-7.1c-0.3-1.6-0.4-2.2-0.4-3.5v-9.2c0-6.1-0.9-7.5-5.1-7.5h-1.7v20.2h-6.7V13.9z M82.7,32.3
		c4,0,5.1-1.3,5.1-6.3c0-5.2-0.9-6.1-5.4-6.1h-1.3v12.5H82.7z"/>
	<path class="st0" d="M105.7,46.4l-1.6,11.6h-7.1l7.3-44.1h9.6l7.3,44.1h-7.1l-1.6-11.6H105.7z M109.2,22.1l-2.6,18.4h5.2
		L109.2,22.1z"/>
	<path class="st0" d="M145.4,13.9v29.4c0,8.3-0.1,9.3-1.5,11.2c-1.9,2.6-5.1,4.1-9.1,4.1c-4.2,0-7.7-1.8-9.4-4.8
		c-0.9-1.7-1.1-2.9-1.1-10.6V13.9h6.7v29.5c0,5.6,0,5.7,0.3,6.7c0.5,1.7,1.7,2.7,3.5,2.7c1.8,0,3.2-1.1,3.5-3.1
		c0.2-0.9,0.2-1,0.2-6.3V13.9H145.4z"/>
	<path class="st0" d="M157.9,52h11.6v5.9h-18.3V13.9h6.7V52z"/>
	<path class="st0" d="M179.6,57.9h-6.7V13.9h6.7V57.9z"/>
	<path class="st0" d="M203.9,19.8h-11.6V32h10.6V38h-10.6v14h11.6v5.9h-18.3V13.9h18.3V19.8z"/>
	<path class="st0" d="M215.4,33.1l8.3-19.2h7.4l-8.7,18.6l9.4,25.4h-7.3l-6.1-18l-3,6.6v11.4h-6.7V13.9h6.7V33.1z"/>
</g>
<g>
	<polygon class="st0" points="280.5,41.4 280.5,26 275.3,41.4 	"/>
	<path class="st0" d="M297.1,14l-22-12.7c-2.9-1.7-7.7-1.7-10.6,0L242.4,14c-2.9,1.7-5.3,5.8-5.3,9.2v25.5c0,3.4,2.4,7.5,5.3,9.2
		l22.1,12.7c2.9,1.7,7.7,1.7,10.6,0l22-12.7c2.9-1.7,5.3-5.8,5.3-9.2V23.2C302.4,19.8,300,15.7,297.1,14z M267.3,50.2v5.2h-17.1
		c-0.2-8,2.1-14.1,7.5-20.5c4.1-4.9,4.9-6.3,4.9-9.2c0-2.6-1.1-4.2-3-4.2c-2.2,0-3.2,1.8-3.2,6.3c0,0.1,0,0.5,0.1,0.9h-5.9v-1.4
		c0-4,0.8-6.8,2.3-8.4c1.5-1.6,4-2.4,7-2.4c5.6,0,8.6,3.2,8.6,9.1c0,2.6-0.6,5-1.8,7.3c-0.7,1.3-1.9,2.9-4.8,6.3
		c-4,4.9-5.3,7.6-5.5,11H267.3z M289.3,46.6h-2.9v8.8h-5.9v-8.8h-9.9v-4.8l9.3-24.8h6.5v24.4h2.9V46.6z"/>
</g>
<g>
	<path class="st0" d="M6,69.8c-0.1,1.2-0.3,1.8-0.8,2.4c-0.5,0.6-1,0.8-1.9,0.8c-2,0-2.9-1.4-2.9-4.6c0-1.5,0.2-2.6,0.6-3.4
		c0.4-0.9,1.3-1.4,2.3-1.4c0.8,0,1.4,0.2,1.8,0.7c0.4,0.5,0.6,0.9,0.7,2H5.2c-0.1-0.8-0.2-1.2-0.5-1.6c-0.3-0.4-0.8-0.6-1.3-0.6
		c-1.5,0-2.2,1.3-2.2,4.2c0,2.8,0.7,4,2.1,4c1.2,0,1.9-1,2-2.6H6z"/>
	<path class="st0" d="M13.7,68.2c0,3.3-0.9,4.8-2.9,4.8c-1.9,0-2.8-1.5-2.8-4.8c0-3.1,1-4.6,2.9-4.6C12.8,63.6,13.7,65,13.7,68.2z
		 M8.6,68.2c0,2.9,0.6,4.2,2.1,4.2c1.5,0,2.2-1.3,2.2-4.1c0-2.9-0.7-4.1-2.2-4.1S8.6,65.4,8.6,68.2z"/>
	<path class="st0" d="M17.1,63.7l2.3,8.1l2.2-8.1h1.2v9.1h-0.7v-8.3l-2.4,8.3h-0.7l-2.4-8.3v8.3H16v-9.1H17.1z"/>
	<path class="st0" d="M27.6,63.7c0.8,0,1.3,0.1,1.7,0.4c0.7,0.4,1,1.2,1,2.2c0,1.1-0.4,1.9-1.2,2.3c-0.4,0.2-0.8,0.3-1.8,0.3h-1.2v4
		h-0.7v-9.1H27.6z M26.1,68.3h1.3c0.7,0,1.1-0.1,1.4-0.3c0.5-0.3,0.8-0.9,0.8-1.7c0-0.8-0.3-1.4-0.8-1.7c-0.3-0.2-0.7-0.2-1.3-0.2
		h-1.3V68.3z"/>
	<path class="st0" d="M37.9,68.2c0,3.3-0.9,4.8-2.9,4.8c-1.9,0-2.8-1.5-2.8-4.8c0-3.1,1-4.6,2.9-4.6C37,63.6,37.9,65,37.9,68.2z
		 M32.8,68.2c0,2.9,0.6,4.2,2.1,4.2c1.5,0,2.2-1.3,2.2-4.1c0-2.9-0.7-4.1-2.2-4.1C33.5,64.2,32.8,65.4,32.8,68.2z"/>
	<path class="st0" d="M41.1,63.7l3.6,7.9v-7.9h0.7v9.1h-0.9l-3.6-8.1v8.1h-0.7v-9.1H41.1z"/>
	<path class="st0" d="M52.4,63.7v0.6h-3.7v3.4h3.5v0.6h-3.5v3.8h3.8v0.6h-4.6v-9.1H52.4z"/>
	<path class="st0" d="M55.6,63.7l3.6,7.9v-7.9h0.7v9.1H59l-3.6-8.1v8.1h-0.7v-9.1H55.6z"/>
	<path class="st0" d="M67.3,63.7v0.6h-2.4v8.5h-0.7v-8.5h-2.4v-0.6H67.3z"/>
	<path class="st0" d="M73.6,63.7v0.6h-3.7v3.4h3.5v0.6h-3.5v3.8h3.8v0.6h-4.6v-9.1H73.6z"/>
	<path class="st0" d="M76.8,63.7l3.6,7.9v-7.9h0.7v9.1h-0.9l-3.6-8.1v8.1h-0.7v-9.1H76.8z"/>
	<path class="st0" d="M92.9,63.7v11.3h-0.7V63.7H92.9z"/>
	<path class="st0" d="M104.4,70.1c0,0.8,0.1,1.1,0.2,1.4c0.3,0.6,0.9,0.9,1.7,0.9c1.2,0,2-0.7,2-1.9c0-0.6-0.2-1-0.6-1.4
		c-0.3-0.3-0.4-0.3-1.9-0.8c-1.3-0.5-1.9-1.1-1.9-2.3c0-1.5,0.9-2.4,2.5-2.4c1.6,0,2.4,0.8,2.4,2.4H108c0-1.2-0.6-1.8-1.7-1.8
		c-1.1,0-1.8,0.7-1.8,1.7c0,0.7,0.2,1.1,0.8,1.5c0.3,0.2,0.3,0.2,1.8,0.7c1.4,0.5,1.9,1.1,1.9,2.4c0,1.6-1,2.6-2.7,2.6
		c-1.7,0-2.6-0.9-2.6-2.7v-0.2H104.4z"/>
	<path class="st0" d="M111,63.7l2,4.7l2.1-4.7h0.7l-2.5,5.4v3.7h-0.7v-3.7l-2.4-5.4H111z"/>
	<path class="st0" d="M117.7,70.1c0,0.8,0.1,1.1,0.2,1.4c0.3,0.6,0.9,0.9,1.7,0.9c1.2,0,2-0.7,2-1.9c0-0.6-0.2-1-0.6-1.4
		c-0.3-0.3-0.4-0.3-1.9-0.8c-1.3-0.5-1.9-1.1-1.9-2.3c0-1.5,0.9-2.4,2.5-2.4c1.6,0,2.4,0.8,2.4,2.4h-0.7c0-1.2-0.6-1.8-1.7-1.8
		c-1.1,0-1.8,0.7-1.8,1.7c0,0.7,0.2,1.1,0.8,1.5c0.3,0.2,0.3,0.2,1.8,0.7c1.4,0.5,1.9,1.1,1.9,2.4c0,1.6-1,2.6-2.7,2.6
		c-1.7,0-2.6-0.9-2.6-2.7v-0.2H117.7z"/>
	<path class="st0" d="M129.1,63.7v0.6h-2.4v8.5h-0.7v-8.5h-2.4v-0.6H129.1z"/>
	<path class="st0" d="M135.4,63.7v0.6h-3.7v3.4h3.5v0.6h-3.5v3.8h3.8v0.6H131v-9.1H135.4z"/>
	<path class="st0" d="M138.9,63.7l2.3,8.1l2.2-8.1h1.2v9.1H144v-8.3l-2.4,8.3h-0.7l-2.4-8.3v8.3h-0.7v-9.1H138.9z"/>
	<path class="st0" d="M151.7,63.7v0.6H148v3.4h3.5v0.6H148v3.8h3.8v0.6h-4.6v-9.1H151.7z"/>
	<path class="st0" d="M154.9,63.7l3.6,7.9v-7.9h0.7v9.1h-0.9l-3.6-8.1v8.1H154v-9.1H154.9z"/>
	<path class="st0" d="M171,63.7v11.3h-0.7V63.7H171z"/>
	<path class="st0" d="M182.5,70.1c0,0.8,0.1,1.1,0.2,1.4c0.3,0.6,0.9,0.9,1.7,0.9c1.2,0,2-0.7,2-1.9c0-0.6-0.2-1-0.6-1.4
		c-0.3-0.3-0.4-0.3-1.9-0.8c-1.3-0.5-1.9-1.1-1.9-2.3c0-1.5,0.9-2.4,2.5-2.4c1.6,0,2.4,0.8,2.4,2.4h-0.7c0-1.2-0.6-1.8-1.7-1.8
		c-1.1,0-1.8,0.7-1.8,1.7c0,0.7,0.2,1.1,0.8,1.5c0.3,0.2,0.3,0.2,1.8,0.7c1.4,0.5,1.9,1.1,1.9,2.4c0,1.6-1,2.6-2.7,2.6
		c-1.7,0-2.6-0.9-2.6-2.7v-0.2H182.5z"/>
	<path class="st0" d="M189.9,63.7v8.5h3.8v0.6h-4.5v-9.1H189.9z"/>
	<path class="st0" d="M198.6,63.7l2.6,9.1h-0.8l-0.8-2.7h-3.3l-0.8,2.7h-0.7l2.7-9.1H198.6z M196.6,69.6h3l-1.5-5.4L196.6,69.6z"/>
	<path class="st0" d="M204,63.7l3.6,7.9v-7.9h0.7v9.1h-0.9l-3.6-8.1v8.1h-0.7v-9.1H204z"/>
	<path class="st0" d="M216.1,68.3v4.6h-0.5v-0.6v-0.4c0-0.2,0-0.3,0-0.7c-0.2,0.8-0.4,1.1-0.7,1.4c-0.4,0.4-0.9,0.5-1.5,0.5
		c-1.8,0-2.8-1.5-2.8-4.6c0-1.6,0.2-2.7,0.6-3.4c0.5-0.9,1.3-1.4,2.3-1.4c1.5,0,2.5,1,2.5,2.6l-0.7,0c-0.1-0.8-0.2-1.1-0.5-1.5
		c-0.3-0.4-0.8-0.6-1.3-0.6c-0.8,0-1.4,0.4-1.8,1.2c-0.3,0.7-0.4,1.7-0.4,3.1c0,2.7,0.7,4,2.1,4c0.8,0,1.5-0.5,1.8-1.4
		c0.2-0.6,0.3-1.1,0.3-2.2h-2.2v-0.6H216.1z"/>
	<path class="st0" d="M222.9,63.7v0.6h-3.7v3.4h3.5v0.6h-3.5v3.8h3.8v0.6h-4.6v-9.1H222.9z"/>
	<path class="st0" d="M226.2,63.7l3.6,7.9v-7.9h0.7v9.1h-0.9l-3.6-8.1v8.1h-0.7v-9.1H226.2z"/>
</g>
</svg>
