<svg width="152" height="57" viewBox="0 0 152 57" fill="none" xmlns="http://www.w3.org/2000/svg"><g clip-path="url(#clip0_8933_660)"><path d="M63.4713 11.7751C63.4828 11.655 63.5343 11.5421 63.6175 11.4548C63.6634 11.4085 63.7186 11.3723 63.7794 11.3487C63.8401 11.3251 63.9052 11.3146 63.9704 11.3178H67.5588C67.6756 11.3124 67.7904 11.3494 67.8821 11.4219C67.9738 11.4944 68.0362 11.5976 68.0579 11.7124L70.878 21.1316L73.7191 11.7124C73.7503 11.5968 73.8194 11.4951 73.9154 11.4235C74.0114 11.352 74.1286 11.3147 74.2483 11.3178H77.7973C77.9217 11.3183 78.0415 11.3646 78.1339 11.4478C78.2313 11.5306 78.2929 11.6479 78.3057 11.7751C78.5471 14.2107 78.7939 16.6255 79.0461 19.0193C79.2983 21.4132 79.5459 23.8287 79.7889 26.2659V26.317C79.7889 26.5862 79.6357 26.7209 79.3246 26.7209H76.4047C76.3399 26.731 76.2737 26.7262 76.2111 26.707C76.1485 26.6877 76.0911 26.6545 76.0432 26.6097C75.9954 26.565 75.9583 26.5099 75.9349 26.4488C75.9114 26.3876 75.9022 26.3219 75.9079 26.2566L75.005 18.2371L72.6723 26.3077C72.6439 26.4019 72.5919 26.4874 72.5214 26.5561C72.4918 26.5973 72.4536 26.6316 72.4096 26.6569C72.3655 26.6821 72.3166 26.6976 72.2661 26.7023H69.5295C69.4263 26.6926 69.3312 26.6426 69.2649 26.563C69.188 26.4967 69.135 26.407 69.114 26.3077L66.7928 18.258L65.8783 26.2589C65.8644 26.563 65.695 26.7232 65.37 26.7232H62.4361C62.3738 26.7318 62.3104 26.7256 62.2509 26.705C62.1915 26.6845 62.1378 26.6502 62.0941 26.6049C62.0504 26.5597 62.0181 26.5048 61.9997 26.4446C61.9812 26.3845 61.9773 26.3209 61.9881 26.2589L63.4713 11.7751Z" fill="white"></path><path d="M86.9449 11.724C86.9558 11.6743 86.9789 11.628 87.0122 11.5894C87.0516 11.5378 87.0985 11.4924 87.1515 11.4548C87.2057 11.414 87.265 11.3805 87.3279 11.355C87.384 11.3323 87.4438 11.3197 87.5043 11.3179H90.1597C90.2703 11.3155 90.3779 11.3544 90.4614 11.4269C90.5294 11.485 90.5916 11.5495 90.6471 11.6196L90.9071 12.2115L96.3525 26.259C96.3813 26.3119 96.3936 26.3722 96.3878 26.4322C96.382 26.4922 96.3584 26.5491 96.32 26.5955C96.2679 26.6443 96.2059 26.6813 96.1381 26.7037C96.0704 26.7261 95.9986 26.7336 95.9277 26.7255H92.9497C92.8213 26.7339 92.6935 26.7031 92.5829 26.6373C92.4841 26.5644 92.4122 26.4607 92.3787 26.3425C92.2425 25.9897 92.1079 25.6385 91.9748 25.2887C91.8425 24.9406 91.7125 24.5924 91.5802 24.2373H86.0745C85.9422 24.5901 85.8099 24.9336 85.6729 25.2887C85.536 25.6439 85.406 25.9851 85.2737 26.3425C85.2434 26.4573 85.1744 26.5581 85.0784 26.6278C84.9824 26.6976 84.8653 26.7321 84.7468 26.7255H81.6852C81.5684 26.7295 81.4538 26.6934 81.3603 26.6234C81.3171 26.5854 81.2885 26.5335 81.2796 26.4767C81.2707 26.4199 81.282 26.3617 81.3115 26.3124L86.9449 11.724ZM88.832 16.1621C88.702 16.5149 88.5674 16.8955 88.4328 17.304C88.2981 17.7126 88.1658 18.1234 88.0335 18.5389C87.9012 18.9544 87.7689 19.3629 87.6343 19.7668C87.4997 20.1706 87.3674 20.5513 87.2351 20.9018H90.4196L88.832 16.1621Z" fill="white"></path><path d="M99.6717 21.7421C99.7877 21.8396 99.9386 21.9742 100.122 22.132C100.321 22.3064 100.531 22.4677 100.751 22.6148C101.079 22.8363 101.43 23.0208 101.798 23.1649C102.146 23.2954 102.515 23.3614 102.886 23.3599C103.186 23.3672 103.486 23.3273 103.773 23.2415C103.983 23.1794 104.176 23.0716 104.339 22.9259C104.474 22.7977 104.576 22.6382 104.634 22.4616C104.693 22.2842 104.723 22.0984 104.722 21.9115C104.722 21.8042 104.7 21.6981 104.658 21.5993C104.616 21.5005 104.555 21.411 104.479 21.3359C104.304 21.1567 104.102 21.0049 103.882 20.8856C103.647 20.7533 103.401 20.6407 103.146 20.549C102.891 20.4562 102.668 20.3772 102.483 20.3169C101.733 20.065 101.004 19.7546 100.303 19.3884C99.7338 19.0918 99.2101 18.7151 98.7478 18.2697C98.3511 17.8833 98.0355 17.4217 97.8194 16.9118C97.6066 16.3872 97.5008 15.8253 97.5084 15.2592C97.5007 14.6529 97.6334 14.0532 97.896 13.5067C98.1592 12.9791 98.5395 12.5186 99.0078 12.1604C99.528 11.7669 100.117 11.4734 100.744 11.2947C101.482 11.082 102.248 10.9787 103.016 10.9883C103.626 10.9862 104.233 11.0579 104.825 11.2018C105.422 11.3516 105.996 11.5803 106.533 11.8819C106.765 12.0189 106.997 12.1628 107.201 12.3113C107.394 12.4456 107.579 12.5897 107.756 12.7431C107.895 12.8605 108.022 12.992 108.135 13.1353C108.213 13.2258 108.262 13.3386 108.274 13.458C108.275 13.5454 108.252 13.6315 108.206 13.7063C108.149 13.8001 108.081 13.8873 108.005 13.9663L106.417 15.6561C106.373 15.7078 106.319 15.7501 106.259 15.7804C106.198 15.8107 106.132 15.8285 106.064 15.8325C105.97 15.8325 105.879 15.8041 105.802 15.7512C105.71 15.6869 105.621 15.6171 105.537 15.5423L105.442 15.4588C105.305 15.3427 105.152 15.2267 104.978 15.0967C104.806 14.9697 104.625 14.8572 104.435 14.7601C104.238 14.6585 104.033 14.5754 103.822 14.5118C103.61 14.4482 103.389 14.4176 103.167 14.4212C102.952 14.4196 102.736 14.439 102.524 14.4793C102.339 14.5106 102.161 14.5717 101.995 14.6603C101.849 14.7381 101.724 14.8504 101.631 14.9876C101.541 15.1385 101.494 15.3114 101.496 15.4871C101.498 15.6628 101.549 15.8345 101.642 15.9834C101.759 16.1429 101.908 16.2764 102.079 16.3756C102.306 16.5151 102.547 16.6302 102.798 16.7191C103.086 16.8259 103.418 16.9513 103.799 17.0673C104.532 17.3087 105.208 17.5625 105.827 17.8286C106.402 18.0687 106.941 18.3866 107.429 18.7733C107.87 19.1252 108.23 19.5687 108.483 20.0732C108.75 20.6475 108.879 21.2761 108.861 21.9092C108.872 22.6263 108.713 23.3358 108.397 23.9796C108.09 24.5938 107.653 25.1334 107.116 25.5603C106.545 26.0109 105.897 26.3538 105.203 26.5723C104.438 26.8157 103.64 26.9364 102.838 26.9298C102.037 26.9292 101.243 26.7846 100.493 26.5027C99.7291 26.2214 99.0067 25.8372 98.3463 25.3607C98.0983 25.182 97.8654 24.9833 97.65 24.7665C97.4596 24.5715 97.3087 24.416 97.1997 24.3023L97.1672 24.2721C97.1672 24.2582 97.1532 24.2489 97.1463 24.2466C97.1391 24.2424 97.1327 24.2369 97.1277 24.2303C97.1277 24.2164 97.1138 24.2071 97.1068 24.2048L97.0859 24.1885C96.9638 24.0803 96.882 23.9338 96.8538 23.7731C96.8639 23.6947 96.8897 23.6192 96.9296 23.551C96.9694 23.4829 97.0226 23.4234 97.0859 23.3762L98.8801 21.6655C98.9804 21.5808 99.1029 21.5268 99.233 21.51C99.3032 21.5127 99.3713 21.5343 99.4303 21.5726C99.5142 21.624 99.5948 21.6806 99.6717 21.7421Z" fill="white"></path><path d="M110.5 11.7728C110.497 11.711 110.508 11.6494 110.533 11.5925C110.557 11.5355 110.593 11.4845 110.639 11.4432C110.735 11.3586 110.859 11.3137 110.987 11.3179H122.147C122.268 11.3169 122.385 11.3579 122.479 11.4339C122.529 11.4756 122.57 11.5272 122.599 11.5856C122.627 11.644 122.644 11.7078 122.646 11.7728V14.3493C122.644 14.4795 122.598 14.6052 122.516 14.7067C122.473 14.7629 122.417 14.8078 122.353 14.8373C122.288 14.8668 122.218 14.8802 122.147 14.8762H118.57V26.2335C118.569 26.3586 118.521 26.4788 118.436 26.57C118.392 26.6197 118.337 26.6591 118.276 26.6852C118.215 26.7113 118.149 26.7235 118.083 26.7209H115.042C114.918 26.7183 114.799 26.6685 114.71 26.5816C114.66 26.5387 114.62 26.4852 114.593 26.425C114.566 26.3648 114.553 26.2994 114.555 26.2335V14.8855H110.989C110.925 14.8875 110.862 14.8767 110.802 14.8535C110.742 14.8304 110.687 14.7955 110.641 14.7508C110.592 14.6987 110.554 14.6368 110.531 14.5693C110.507 14.5018 110.497 14.43 110.502 14.3586L110.5 11.7728Z" fill="white"></path><path d="M125.148 11.796C125.142 11.6691 125.184 11.5446 125.267 11.4478C125.31 11.4034 125.363 11.3689 125.421 11.3464C125.479 11.324 125.541 11.3143 125.603 11.3179H135.893C135.958 11.3143 136.023 11.3245 136.084 11.3477C136.144 11.3709 136.2 11.4066 136.246 11.4525C136.333 11.5525 136.378 11.6822 136.371 11.8146V14.3678C136.369 14.4911 136.325 14.6099 136.246 14.7044C136.203 14.7582 136.147 14.8008 136.084 14.8287C136.021 14.8566 135.952 14.8689 135.884 14.8646H129.152V17.4387H134.34C134.456 17.4346 134.57 17.468 134.665 17.5339C134.711 17.5706 134.747 17.6183 134.77 17.6727C134.793 17.7271 134.801 17.7863 134.795 17.8449V20.0848C134.792 20.1891 134.752 20.2889 134.681 20.3656C134.639 20.4114 134.588 20.4473 134.531 20.4705C134.473 20.4938 134.411 20.504 134.349 20.5003H129.169V23.1556H136.132C136.195 23.1477 136.259 23.1542 136.319 23.1748C136.379 23.1953 136.433 23.2293 136.478 23.2741C136.523 23.3188 136.557 23.3733 136.577 23.4332C136.598 23.4932 136.604 23.557 136.596 23.6199V26.2265C136.596 26.2619 136.588 26.2968 136.574 26.3291C136.559 26.3614 136.539 26.3905 136.513 26.4145C136.487 26.6071 136.346 26.7023 136.088 26.7023H125.613C125.492 26.7089 125.374 26.67 125.281 26.5932C125.237 26.5494 125.203 26.4966 125.182 26.4385C125.161 26.3804 125.153 26.3183 125.158 26.2567L125.148 11.796Z" fill="white"></path><path d="M139.177 11.796C139.171 11.6695 139.213 11.5454 139.293 11.4478C139.337 11.4023 139.39 11.367 139.449 11.3445C139.508 11.322 139.572 11.3129 139.635 11.3178H146.336C147.023 11.3135 147.704 11.4494 148.336 11.7171C148.941 11.9741 149.492 12.3418 149.961 12.801C150.425 13.2608 150.796 13.8053 151.055 14.4049C151.322 15.0216 151.458 15.6872 151.454 16.3593C151.457 16.8142 151.392 17.267 151.263 17.7032C151.011 18.54 150.547 19.2973 149.915 19.9014C149.603 20.2002 149.257 20.4598 148.882 20.6743L151.547 25.6949C151.596 25.7924 151.659 25.9061 151.735 26.0361C151.802 26.1388 151.841 26.2572 151.848 26.3796C151.851 26.4274 151.843 26.4752 151.824 26.5191C151.805 26.563 151.776 26.6019 151.739 26.6326C151.655 26.6961 151.55 26.7274 151.444 26.7208H147.895C147.782 26.7218 147.671 26.686 147.58 26.6187C147.486 26.5512 147.42 26.4511 147.396 26.3379L144.878 21.5981H143.198V26.2752C143.198 26.5723 143.037 26.7208 142.719 26.7208H139.635C139.514 26.7276 139.396 26.6887 139.303 26.6117C139.258 26.5684 139.224 26.5157 139.202 26.4575C139.181 26.3993 139.172 26.3371 139.177 26.2752V11.796ZM147.301 16.4011C147.301 16.1886 147.262 15.9779 147.188 15.779C147.111 15.573 147.003 15.3803 146.867 15.208C146.727 15.0347 146.559 14.8871 146.368 14.7717C146.171 14.6523 145.953 14.5734 145.725 14.5395L145.18 14.5047C145.01 14.5047 144.827 14.4885 144.625 14.4885H143.195V18.2951H145.11C145.235 18.2951 145.342 18.2951 145.442 18.2951C145.542 18.2951 145.646 18.2789 145.762 18.265C145.993 18.2409 146.216 18.1681 146.417 18.0514C146.605 17.9419 146.77 17.7977 146.904 17.6266C147.037 17.4553 147.139 17.2621 147.206 17.0557C147.271 16.8437 147.303 16.6228 147.299 16.4011H147.301Z" fill="white"></path><path d="M61.7815 31.8598C61.7789 31.7977 61.79 31.7357 61.8141 31.6783C61.8381 31.6209 61.8746 31.5696 61.9208 31.5279C62.0175 31.4449 62.1416 31.401 62.269 31.4049H73.429C73.5494 31.4034 73.6667 31.4436 73.7609 31.5186C73.8108 31.5607 73.8513 31.6129 73.8797 31.6717C73.9081 31.7305 73.9238 31.7946 73.9257 31.8598V34.434C73.9242 34.564 73.8793 34.6899 73.798 34.7914C73.7547 34.8473 73.6985 34.8919 73.6343 34.9214C73.57 34.9509 73.4996 34.9645 73.429 34.9609H69.8405V46.3182C69.8404 46.4441 69.7923 46.5654 69.7059 46.657C69.6622 46.7064 69.6081 46.7456 69.5475 46.7717C69.4869 46.7977 69.4213 46.8101 69.3554 46.8079H66.3124C66.1885 46.8043 66.0707 46.7537 65.9828 46.6663C65.9327 46.6234 65.8928 46.5699 65.8659 46.5097C65.839 46.4495 65.8258 46.3841 65.8273 46.3182V34.9609H62.2597C62.1958 34.9628 62.1322 34.9522 62.0724 34.9295C62.0127 34.9068 61.958 34.8725 61.9115 34.8286C61.8626 34.7758 61.825 34.7136 61.801 34.6457C61.7771 34.5778 61.7673 34.5058 61.7723 34.434L61.7815 31.8598Z" fill="white"></path><path d="M74.7799 39.1203C74.7769 38.4075 74.8714 37.6976 75.0607 37.0104C75.2432 36.3455 75.5116 35.7072 75.8592 35.1117C76.2026 34.5238 76.619 33.9818 77.0987 33.4985C77.5778 33.0181 78.1169 32.6015 78.7026 32.259C79.2981 31.9149 79.9344 31.6467 80.5966 31.4606C81.9775 31.0799 83.4356 31.0799 84.8164 31.4606C85.4805 31.6454 86.1185 31.9137 86.7151 32.259C87.8962 32.947 88.8784 33.93 89.5655 35.1117C89.9092 35.7091 90.1774 36.3469 90.3639 37.0104C90.7446 38.392 90.7446 39.8509 90.3639 41.2325C90.1786 41.8928 89.9103 42.5269 89.5655 43.1196C89.2227 43.7037 88.8053 44.2405 88.3237 44.7166C87.8421 45.1961 87.3016 45.6126 86.7151 45.956C86.1204 46.3052 85.4819 46.5738 84.8164 46.7545C83.7956 47.036 82.7288 47.1104 81.6788 46.9733C80.6288 46.8362 79.6168 46.4903 78.7026 45.956C77.5298 45.2667 76.5514 44.2907 75.8592 43.1196C75.5105 42.5288 75.2419 41.8942 75.0607 41.2325C74.8714 40.5445 74.7769 39.8339 74.7799 39.1203ZM78.7931 39.1203C78.789 39.6691 78.8874 40.2138 79.0832 40.7265C79.2656 41.205 79.5382 41.6439 79.8863 42.0194C80.2355 42.3909 80.6564 42.6878 81.1235 42.8921C81.6199 43.1072 82.1563 43.2148 82.6972 43.2078C83.2404 43.2143 83.7789 43.1068 84.2779 42.8921C84.7471 42.689 85.1697 42.392 85.5197 42.0194C85.874 41.6429 86.1508 41.2005 86.3344 40.7172C86.7213 39.6822 86.7213 38.5422 86.3344 37.5071C86.1501 37.0214 85.8735 36.5761 85.5197 36.1957C85.1751 35.8222 84.7592 35.5215 84.2965 35.3113C83.7981 35.0941 83.2594 34.9849 82.7158 34.991C82.1859 34.9811 81.6599 35.0833 81.1723 35.2909C80.6847 35.4985 80.2464 35.8068 79.8863 36.1957C79.5334 36.5767 79.2568 37.0219 79.0716 37.5071C78.8801 38.0199 78.7849 38.5637 78.7908 39.111L78.7931 39.1203Z" fill="white"></path><path d="M92.4622 39.1203C92.4592 38.4075 92.5537 37.6976 92.7431 37.0104C92.9256 36.3455 93.194 35.7072 93.5416 35.1117C93.8849 34.5238 94.3014 33.9818 94.781 33.4985C95.2602 33.0181 95.7992 32.6015 96.3849 32.259C96.9805 31.9149 97.6168 31.6467 98.279 31.4606C99.6598 31.0799 101.118 31.0799 102.499 31.4606C103.163 31.6454 103.801 31.9137 104.397 32.259C105.579 32.947 106.561 33.93 107.248 35.1117C107.592 35.7091 107.86 36.3469 108.046 37.0104C108.427 38.392 108.427 39.8509 108.046 41.2325C107.861 41.8928 107.593 42.5269 107.248 43.1196C106.905 43.7037 106.488 44.2405 106.006 44.7166C105.524 45.1961 104.984 45.6126 104.397 45.956C103.803 46.3052 103.164 46.5738 102.499 46.7545C101.478 47.036 100.411 47.1104 99.3612 46.9733C98.3111 46.8362 97.2992 46.4903 96.3849 45.956C95.2122 45.2667 94.2337 44.2907 93.5416 43.1196C93.1928 42.5288 92.9243 41.8942 92.7431 41.2325C92.5537 40.5445 92.4592 39.8339 92.4622 39.1203ZM96.4755 39.1203C96.4714 39.6691 96.5698 40.2138 96.7656 40.7265C96.9493 41.2098 97.2261 41.6522 97.5803 42.0287C97.9295 42.4002 98.3504 42.6971 98.8175 42.9014C99.3139 43.1165 99.8502 43.2241 100.391 43.2171C100.934 43.2236 101.473 43.1161 101.972 42.9014C102.441 42.6983 102.864 42.4013 103.214 42.0287C103.568 41.6522 103.845 41.2098 104.028 40.7265C104.415 39.6915 104.415 38.5515 104.028 37.5164C103.844 37.0307 103.567 36.5854 103.214 36.205C102.863 35.8303 102.441 35.5302 101.972 35.3229C101.474 35.1057 100.935 34.9966 100.391 35.0026C99.8646 34.995 99.3423 35.0981 98.8581 35.3052C98.3738 35.5124 97.9385 35.8189 97.5803 36.205C97.2266 36.5854 96.9499 37.0307 96.7656 37.5164C96.5721 38.0257 96.4737 38.5662 96.4755 39.111V39.1203Z" fill="white"></path><path d="M110.5 31.8506C110.498 31.7309 110.543 31.6153 110.625 31.5279C110.669 31.4823 110.722 31.4467 110.781 31.4235C110.84 31.4002 110.903 31.39 110.966 31.3933H114.037C114.156 31.3944 114.27 31.439 114.357 31.5187C114.406 31.5597 114.444 31.6106 114.471 31.6678C114.498 31.725 114.512 31.7874 114.513 31.8506V43.1359H120.218C120.338 43.1339 120.453 43.178 120.541 43.2589C120.586 43.3034 120.622 43.3571 120.645 43.4163C120.668 43.4755 120.679 43.5389 120.676 43.6025V46.3298C120.675 46.4482 120.632 46.5625 120.555 46.6524C120.513 46.7011 120.462 46.7402 120.404 46.7671C120.346 46.7939 120.282 46.8079 120.218 46.8079H110.957C110.894 46.8184 110.829 46.8136 110.768 46.794C110.707 46.7743 110.651 46.7404 110.606 46.695C110.56 46.6497 110.526 46.5941 110.507 46.533C110.487 46.4719 110.482 46.407 110.493 46.3437L110.5 31.8506Z" fill="white"></path><path d="M125.03 41.829C125.148 41.9242 125.299 42.0612 125.494 42.2167C125.693 42.3905 125.902 42.5518 126.121 42.6995C126.449 42.9204 126.8 43.1049 127.168 43.2496C127.516 43.3808 127.886 43.4476 128.259 43.4469C128.559 43.4547 128.858 43.4139 129.145 43.3262C129.355 43.2646 129.547 43.1567 129.709 43.0105C129.845 42.8828 129.948 42.7233 130.007 42.5463C130.065 42.3689 130.095 42.1831 130.095 41.9962C130.097 41.7811 130.013 41.5741 129.863 41.4205C129.687 41.242 129.486 41.0903 129.266 40.9702C129.029 40.8389 128.782 40.7264 128.528 40.6337C128.273 40.5408 128.052 40.4619 127.864 40.4016C127.115 40.1507 126.387 39.8403 125.687 39.4731C125.117 39.177 124.594 38.8002 124.132 38.3543C123.726 37.9656 123.405 37.4965 123.19 36.977C122.976 36.4574 122.872 35.8988 122.885 35.3368C122.874 34.7389 123.004 34.1467 123.265 33.6083C123.525 33.0699 123.909 32.6005 124.385 32.2381C124.906 31.8446 125.495 31.5511 126.123 31.3724C126.861 31.1618 127.626 31.0593 128.393 31.0683C129.003 31.0656 129.611 31.1366 130.204 31.2795C130.8 31.4289 131.374 31.6576 131.91 31.9596C132.142 32.0989 132.374 32.2405 132.578 32.389C132.77 32.5235 132.956 32.6676 133.133 32.8207C133.274 32.9384 133.401 33.0707 133.514 33.2153C133.592 33.3049 133.641 33.417 133.653 33.5357C133.654 33.623 133.63 33.7089 133.586 33.784C133.527 33.8767 133.459 33.9638 133.384 34.044L131.796 35.7361C131.752 35.7872 131.698 35.8291 131.637 35.8594C131.577 35.8896 131.511 35.9077 131.443 35.9125C131.348 35.9133 131.256 35.8841 131.179 35.8289C131.1 35.7732 131.012 35.7036 130.914 35.62L130.821 35.5388C130.682 35.4204 130.529 35.3067 130.357 35.1744C130.177 35.0505 129.988 34.9411 129.791 34.8471C129.595 34.7459 129.391 34.6628 129.18 34.5987C128.968 34.5333 128.748 34.4997 128.526 34.4989C128.31 34.4986 128.095 34.5181 127.883 34.5569C127.698 34.589 127.519 34.6501 127.353 34.738C127.208 34.8164 127.084 34.9287 126.991 35.0653C126.898 35.212 126.851 35.3835 126.857 35.5574C126.852 35.736 126.903 35.9117 127.001 36.061C127.118 36.2208 127.266 36.355 127.437 36.4556C127.666 36.5928 127.908 36.7071 128.159 36.7968C128.444 36.9036 128.779 37.0289 129.159 37.145C129.893 37.3864 130.569 37.6402 131.188 37.9063C131.762 38.1478 132.301 38.4656 132.79 38.851C133.231 39.2032 133.591 39.6476 133.843 40.1532C134.11 40.7277 134.239 41.3562 134.222 41.9892C134.232 42.7056 134.073 43.4143 133.757 44.0573C133.449 44.6708 133.012 45.2107 132.476 45.6403C131.904 46.0896 131.255 46.4316 130.561 46.65C129.797 46.8936 128.998 47.0143 128.196 47.0075C127.396 47.0064 126.602 46.8626 125.852 46.5827C125.088 46.2992 124.366 45.9143 123.705 45.4384C123.457 45.2598 123.224 45.061 123.008 44.8442C122.818 44.6515 122.667 44.4937 122.544 44.38L122.514 44.3475C122.514 44.3335 122.5 44.3243 122.493 44.3219C122.485 44.318 122.478 44.3125 122.472 44.3057C122.468 44.2954 122.46 44.2866 122.451 44.2802C122.443 44.2762 122.436 44.2707 122.43 44.2639C122.309 44.1553 122.227 44.009 122.198 43.8484C122.209 43.7705 122.235 43.6955 122.274 43.6277C122.314 43.5599 122.367 43.5008 122.43 43.4538L124.225 41.7408C124.325 41.6568 124.447 41.6029 124.577 41.5853C124.648 41.5877 124.716 41.6094 124.775 41.648C124.865 41.7008 124.95 41.7614 125.03 41.829Z" fill="white"></path><path d="M136.605 37.0429C136.602 36.9879 136.621 36.9338 136.657 36.892C136.677 36.8725 136.702 36.8575 136.728 36.8479C136.755 36.8383 136.784 36.8344 136.812 36.8363H138.061C138.115 36.8368 138.168 36.8565 138.209 36.892C138.232 36.9099 138.25 36.9329 138.262 36.9591C138.274 36.9853 138.28 37.014 138.279 37.0429V38.1825C138.279 38.2379 138.259 38.2914 138.223 38.3334C138.203 38.3564 138.178 38.3745 138.15 38.3862C138.122 38.3979 138.091 38.4028 138.061 38.4007H136.812C136.675 38.4007 136.605 38.3288 136.605 38.1825V37.0429Z" fill="white"></path><path d="M139.621 31.6092C139.619 31.5555 139.638 31.5032 139.674 31.463C139.693 31.4413 139.718 31.4244 139.744 31.4136C139.771 31.4027 139.801 31.3982 139.83 31.4003H141.371C141.418 31.4014 141.465 31.4133 141.508 31.4351C141.558 31.4591 141.6 31.498 141.628 31.5465C142.028 32.1918 142.424 32.827 142.817 33.4522C143.21 34.0773 143.608 34.7118 144.01 35.3555V31.579C144.02 31.5287 144.046 31.483 144.084 31.449C144.121 31.4174 144.168 31.4001 144.216 31.4003H145.56C145.62 31.3984 145.679 31.4182 145.725 31.456C145.747 31.4746 145.765 31.4982 145.776 31.5248C145.787 31.5514 145.792 31.5803 145.79 31.6092V38.2151C145.793 38.2411 145.789 38.2673 145.779 38.2916C145.77 38.3158 145.754 38.3374 145.734 38.3544C145.69 38.3881 145.635 38.4046 145.579 38.4008H144.075C144.055 38.4011 144.035 38.3973 144.017 38.3898C143.999 38.3822 143.982 38.3709 143.968 38.3567C143.931 38.3233 143.897 38.2859 143.868 38.2453L142.629 36.1934C142.22 35.5172 141.806 34.834 141.385 34.1439V38.1919C141.388 38.2477 141.372 38.3029 141.338 38.3474C141.315 38.3673 141.287 38.3823 141.258 38.3914C141.228 38.4006 141.197 38.4038 141.166 38.4008H139.83C139.8 38.4032 139.771 38.3991 139.744 38.3886C139.716 38.3782 139.692 38.3617 139.672 38.3405C139.638 38.3002 139.62 38.2491 139.621 38.1966V31.6092Z" fill="white"></path><path d="M147.162 31.5976C147.162 31.5696 147.167 31.542 147.178 31.5162C147.188 31.4904 147.204 31.467 147.224 31.4475C147.244 31.4279 147.268 31.4127 147.294 31.4026C147.32 31.3924 147.348 31.3877 147.376 31.3887H148.768C148.823 31.3887 148.875 31.4094 148.914 31.4467C148.936 31.4653 148.954 31.4884 148.966 31.5144C148.978 31.5405 148.984 31.5689 148.984 31.5976V36.7249H151.577C151.631 36.7243 151.683 36.7442 151.723 36.7807C151.743 36.801 151.759 36.8253 151.77 36.852C151.78 36.8788 151.785 36.9075 151.783 36.9362V38.1757C151.783 38.2291 151.764 38.2807 151.73 38.3219C151.711 38.3439 151.687 38.3617 151.661 38.3741C151.635 38.3865 151.606 38.3932 151.577 38.3938H147.371C147.343 38.3977 147.314 38.3949 147.287 38.3858C147.26 38.3766 147.235 38.3613 147.215 38.3411C147.194 38.3209 147.179 38.2963 147.17 38.2692C147.161 38.2421 147.158 38.2133 147.162 38.1849V31.5976Z" fill="white"></path><path d="M28.5011 0C22.8641 0 17.3537 1.67156 12.6667 4.80331C7.97973 7.93506 4.32667 12.3863 2.16948 17.5942C0.0122958 22.8021 -0.552122 28.5328 0.547601 34.0615C1.64732 39.5901 4.3618 44.6686 8.34776 48.6545C12.3337 52.6405 17.4121 55.355 22.9408 56.4547C28.4695 57.5544 34.2001 56.99 39.408 54.8328C44.6159 52.6756 49.0672 49.0225 52.199 44.3356C55.3307 39.6486 57.0023 34.1382 57.0023 28.5012C56.9943 20.9446 53.9889 13.6999 48.6457 8.35662C43.3024 3.01334 36.0576 0.00798755 28.5011 0ZM28.5011 51.2343C24.0049 51.2343 19.6097 49.901 15.8713 47.4031C12.1328 44.9051 9.21904 41.3547 7.49843 37.2008C5.77781 33.0468 5.32762 28.4759 6.20478 24.0661C7.08194 19.6563 9.24707 15.6057 12.4264 12.4264C15.6056 9.24711 19.6563 7.08198 24.0661 6.20482C28.4759 5.32766 33.0468 5.77785 37.2007 7.49847C41.3547 9.21908 44.9051 12.1328 47.403 15.8713C49.901 19.6097 51.2343 24.005 51.2343 28.5012C51.2275 34.5283 48.8302 40.3066 44.5684 44.5685C40.3066 48.8303 34.5282 51.2276 28.5011 51.2343Z" fill="white"></path><path d="M44.763 23.657C44.0249 21.1664 42.7223 18.8796 40.9563 16.9745C40.154 17.5242 39.2168 17.8443 38.2459 17.9002C37.2749 17.9561 36.3071 17.7458 35.447 17.2918C34.5869 16.8379 33.8672 16.1576 33.3654 15.3244C32.8637 14.4913 32.5992 13.5369 32.6003 12.5643C32.6003 12.3809 32.6003 12.2045 32.6281 12.0212C29.9205 11.3465 27.0887 11.3465 24.3812 12.0212C24.3974 12.2045 24.4067 12.3809 24.4067 12.5643C24.4072 13.5361 24.1425 14.4896 23.641 15.3221C23.1395 16.1545 22.4204 16.8343 21.561 17.2881C20.7017 17.7419 19.7347 17.9525 18.7645 17.8972C17.7943 17.842 16.8575 17.5229 16.0553 16.9745C14.2948 18.8792 12.9942 21.1621 12.2533 23.6477C13.1788 24.0752 13.9625 24.7588 14.5119 25.6177C15.0612 26.4765 15.3531 27.4747 15.3531 28.4942C15.3531 29.5137 15.0612 30.5119 14.5119 31.3708C13.9625 32.2296 13.1788 32.9132 12.2533 33.3408C12.9929 35.8283 14.2936 38.1129 16.0553 40.0186C16.8567 39.4695 17.7929 39.1495 18.7628 39.0931C19.7328 39.0367 20.6997 39.246 21.5594 39.6986C22.4192 40.1512 23.1391 40.8297 23.6417 41.6612C24.1442 42.4927 24.4103 43.4456 24.4113 44.4172C24.4113 44.6006 24.4113 44.7839 24.3858 44.958C27.093 45.6358 29.9256 45.6358 32.6328 44.958C32.6165 44.7839 32.6049 44.6006 32.6049 44.4172C32.6059 43.4456 32.872 42.4927 33.3746 41.6612C33.8771 40.8297 34.5971 40.1512 35.4568 39.6986C36.3165 39.246 37.2835 39.0367 38.2534 39.0931C39.2233 39.1495 40.1595 39.4695 40.961 40.0186C42.7244 38.1171 44.0268 35.8354 44.7676 33.35C43.8421 32.9225 43.0583 32.2389 42.509 31.3801C41.9597 30.5212 41.6678 29.523 41.6678 28.5035C41.6678 27.484 41.9597 26.4858 42.509 25.627C43.0583 24.7681 43.8421 24.0845 44.7676 23.657H44.763ZM36.4301 34.9748C36.4301 35.2069 36.2955 35.3346 36.0239 35.3346H33.4127C33.3557 35.343 33.2976 35.3386 33.2425 35.3217C33.1875 35.3048 33.1369 35.2758 33.0944 35.2369C33.052 35.198 33.0187 35.1501 32.9971 35.0968C32.9754 35.0434 32.966 34.9859 32.9693 34.9284L32.1662 27.7909L30.0888 34.9864C30.0641 35.0705 30.0176 35.1465 29.9542 35.2069C29.9273 35.2442 29.8926 35.2751 29.8525 35.2976C29.8124 35.32 29.7679 35.3335 29.7221 35.3369H27.3011C27.2561 35.3324 27.2124 35.3189 27.1726 35.2974C27.1327 35.2759 27.0975 35.2467 27.069 35.2116C26.9989 35.1519 26.9513 35.07 26.9344 34.9795L24.8454 27.8141L24.0423 34.933C24.0423 35.2023 23.8798 35.3392 23.5897 35.3392H20.9877C20.933 35.3464 20.8775 35.3407 20.8254 35.3226C20.7734 35.3046 20.7262 35.2747 20.6877 35.2353C20.6492 35.1959 20.6204 35.1481 20.6036 35.0956C20.5868 35.0432 20.5824 34.9875 20.5907 34.933L21.9092 22.0368C21.9207 21.9295 21.9662 21.8286 22.0391 21.749C22.08 21.7083 22.1291 21.6767 22.1831 21.6562C22.2371 21.6358 22.2949 21.6271 22.3525 21.6307H25.5464C25.6502 21.6255 25.7523 21.6582 25.8338 21.7227C25.9153 21.7871 25.9707 21.879 25.9897 21.9811L28.5012 30.3627L31.0312 21.9811C31.0571 21.8786 31.1172 21.7879 31.2016 21.7242C31.286 21.6604 31.3897 21.6274 31.4954 21.6307H34.6522C34.7626 21.6299 34.8694 21.6705 34.9516 21.7444C35.038 21.8188 35.0928 21.9234 35.1048 22.0368C35.3183 24.2032 35.5381 26.3526 35.764 28.4849C35.9899 30.6173 36.2096 32.7667 36.4232 34.933L36.4301 34.9748Z" fill="white"></path></g><defs><clipPath id="clip0_8933_660"><rect width="151.853" height="57" fill="white"></rect></clipPath></defs></svg>