<svg fill="#fff" enable-background="new 0 0 83.9 36.9" viewBox="0 0 83.9 36.9" xmlns="http://www.w3.org/2000/svg"><path d="m31 22.6h-1.6v-8.3h2.4l2.1 6.7 2.1-6.7h2.4v8.3h-1.7v-6.2l-2 6.2h-1.7l-2-6.2zm11 0h-1.7v-8.3h1.7zm3.6 0h-1.7v-8.3h2l3.3 6v-6h1.7v8.3h-2l-3.3-6zm9 0h-1.7v-8.3h1.7zm12.2 3.1h-7.9c.4-1 .8-2 1-3.1h10l2.6-2.6h-12.2c0-.5.1-1 .1-1.5s0-1-.1-1.5h15.3l2.6-2.6h-18.3c-.2-1.1-.6-2.1-1-3.1h22.4l2.6-2.6h-26.4c-3.3-5.3-9-8.7-15.6-8.7-6.5 0-12.3 3.4-15.5 8.6h-26.4l2.6 2.6h22.4c-.4 1-.8 2-1 3.1h-18.3l2.6 2.6h15.3c0 .5-.1 1-.1 1.5s0 1 .1 1.5h-12.2l2.6 2.6h10c.2 1.1.6 2.1 1 3.1h-7.9l2.6 2.6h6.7c3.3 5.1 9 8.6 15.5 8.6s12.3-3.4 15.5-8.6h6.7zm-24.9 8.5c-8.7 0-15.8-7.1-15.8-15.8s7.1-15.8 15.8-15.8 15.8 7.1 15.8 15.8-7 15.8-15.8 15.8"/></svg>